<?xml version="1.0" encoding="utf-8"?>
<!-- Generator: Adobe Illustrator 26.4.1, SVG Export Plug-In . SVG Version: 6.00 Build 0)  -->
<svg version="1.1" id="Layer_1" xmlns="http://www.w3.org/2000/svg" xmlns:xlink="http://www.w3.org/1999/xlink" x="0px" y="0px"
	 viewBox="0 0 634.4 245" style="enable-background:new 0 0 634.4 245;" xml:space="preserve">
<style type="text/css">
	.st0{fill:#001E37;}
	.st1{fill:#FFFFFF;}
	.st2{fill:#66FFCC;}
</style>
<rect class="st0" width="634.4" height="245"/>
<g>
	<g>
		<path class="st1" d="M219.9,152.3c-8.6,0-15.1,2.7-19.6,8s-6.8,12.7-6.8,22.1c0,4.5,0.5,8.6,1.6,12.3s2.7,6.9,4.8,9.5
			s4.8,4.7,7.9,6.2c3.2,1.5,6.9,2.2,11.1,2.2c2.6,0,4.9-0.1,6.8-0.3c1.9-0.2,3.4-0.5,4.6-0.8v-29.9h15.1v39.9
			c-2.1,0.8-5.6,1.7-10.6,2.6c-5,1-10.7,1.4-17.1,1.4c-6,0-11.5-1-16.4-2.9c-5-1.9-9.2-4.7-12.6-8.4c-3.5-3.7-6.2-8.2-8.1-13.5
			c-1.9-5.4-2.9-11.5-2.9-18.5s1.1-13.1,3.2-18.5c2.1-5.4,5-9.9,8.7-13.6c3.7-3.7,8-6.5,12.9-8.5c5-1.9,10.2-2.9,15.8-2.9
			c3.8,0,7.3,0.3,10.3,0.8s5.6,1.1,7.7,1.7c2.2,0.6,3.9,1.3,5.3,2c1.4,0.7,2.4,1.2,2.9,1.6l-4.6,12.3c-2.4-1.4-5.4-2.7-8.9-3.7
			C227.5,152.8,223.8,152.3,219.9,152.3z"/>
		<path class="st1" d="M258.7,193c0-5.5,0.8-10.4,2.5-14.5c1.6-4.2,3.8-7.6,6.5-10.4c2.7-2.8,5.8-4.8,9.4-6.2
			c3.5-1.4,7.1-2.1,10.8-2.1c8.6,0,15.4,2.7,20.2,8c4.8,5.4,7.3,13.3,7.3,24c0,0.8,0,1.7-0.1,2.7c0,1-0.1,1.9-0.2,2.7h-41.4
			c0.4,5,2.2,8.9,5.3,11.7c3.2,2.8,7.7,4.1,13.7,4.1c3.5,0,6.7-0.3,9.7-1c2.9-0.6,5.2-1.3,6.9-2l1.9,11.9c-0.8,0.4-1.9,0.8-3.3,1.3
			c-1.4,0.4-3,0.8-4.8,1.2s-3.7,0.7-5.8,0.9c-2.1,0.2-4.2,0.4-6.4,0.4c-5.5,0-10.3-0.8-14.4-2.5c-4.1-1.6-7.4-3.9-10.1-6.8
			c-2.6-2.9-4.6-6.4-5.9-10.3C259.4,202,258.7,197.7,258.7,193z M300.8,186.5c0-2-0.3-3.9-0.8-5.7c-0.6-1.8-1.4-3.4-2.5-4.7
			s-2.4-2.4-4-3.1c-1.6-0.8-3.4-1.1-5.6-1.1s-4.2,0.4-5.9,1.3c-1.7,0.8-3.1,1.9-4.3,3.3c-1.2,1.4-2.1,2.9-2.7,4.7s-1.1,3.6-1.3,5.4
			L300.8,186.5L300.8,186.5z"/>
		<path class="st1" d="M330.7,163.4c2.8-0.8,6.4-1.6,10.9-2.3s9.4-1.1,14.9-1.1c5.1,0,9.4,0.7,12.8,2.1c3.4,1.4,6.2,3.4,8.2,5.9
			s3.5,5.6,4.3,9.1c0.8,3.6,1.3,7.5,1.3,11.7V224h-14.5v-33c0-3.4-0.2-6.2-0.7-8.6c-0.4-2.4-1.2-4.3-2.2-5.8s-2.4-2.6-4.1-3.2
			c-1.7-0.7-3.8-1-6.3-1c-1.8,0-3.8,0.1-5.8,0.4c-2,0.2-3.5,0.4-4.4,0.6V224h-14.5v-60.6L330.7,163.4L330.7,163.4z"/>
		<path class="st1" d="M451.3,141H470v83.1h-18.7v-35.2h-31.4v35.2h-18.7V141h18.7v31.8h31.4V141z"/>
		<path class="st1" d="M541.8,221.9c-3,0.9-7,1.7-11.8,2.5s-9.8,1.1-15.1,1.1c-5.4,0-9.8-0.7-13.4-2.2c-3.6-1.4-6.4-3.5-8.5-6.1
			s-3.6-5.7-4.4-9.3c-0.9-3.6-1.3-7.6-1.3-11.9v-35.1h17.9v33c0,5.8,0.8,9.9,2.3,12.5s4.4,3.8,8.5,3.8c1.3,0,2.6-0.1,4.1-0.2
			c1.4-0.1,2.7-0.3,3.8-0.4v-48.7h17.9V221.9z"/>
		<path class="st1" d="M617.2,192.5c0,5-0.7,9.6-2.2,13.7c-1.5,4.1-3.6,7.6-6.4,10.4c-2.8,2.9-6.2,5.1-10.3,6.7
			c-4.1,1.6-8.7,2.3-13.9,2.3c-2.2,0-4.4-0.1-6.8-0.3c-2.4-0.2-4.7-0.5-7-0.8s-4.5-0.7-6.5-1.1c-2.1-0.4-3.9-0.9-5.5-1.4v-88.1
			l17.9-2.9v31.4c2-0.9,4.1-1.6,6.2-2c2.2-0.5,4.5-0.7,7-0.7c4.5,0,8.4,0.8,11.9,2.3c3.4,1.6,6.3,3.8,8.6,6.7s4.1,6.3,5.3,10.4
			C616.6,183.1,617.2,187.6,617.2,192.5z M599,192c0-11.5-4.2-17.3-12.7-17.3c-1.8,0-3.7,0.2-5.5,0.7s-3.3,1.1-4.4,1.8v32.5
			c0.9,0.2,2,0.3,3.4,0.4c1.4,0.1,2.8,0.2,4.4,0.2c4.9,0,8.6-1.7,11-5C597.7,202,599,197.5,599,192z"/>
	</g>
	<path class="st2" d="M207.7,19.3c-23.4-0.2-42.5,18.6-42.7,42c0,2.7,0.2,5.4,0.7,8c0-0.1,0-0.2-0.1-0.3l0,0
		c5.5,31.1-14.3,60.9-44.6,68.2c-1.2,0.3-2.4,0.5-3.6,0.8c-0.9,0.2-1.9,0.3-2.8,0.4c-0.3,0-0.6,0.1-0.9,0.1
		c-0.6,0.1-1.3,0.1-1.9,0.2c-0.4,0-0.7,0.1-1.1,0.1c-0.6,0-1.2,0.1-1.8,0.1c-0.4,0-0.7,0-1.1,0c-0.6,0-1.2,0-1.8,0c-0.3,0-0.7,0-1,0
		c-0.7,0-1.4-0.1-2.1-0.1c-0.2,0-0.4,0-0.6,0c-0.9-0.1-1.8-0.2-2.7-0.3c-0.2,0-0.5-0.1-0.7-0.1c-0.7-0.1-1.3-0.2-2-0.3
		c-0.3-0.1-0.7-0.1-1-0.2c-0.6-0.1-1.1-0.2-1.7-0.3c-0.3-0.1-0.7-0.2-1-0.2c-0.5-0.1-1.1-0.3-1.6-0.4c-0.3-0.1-0.7-0.2-1-0.3
		c-0.6-0.2-1.1-0.3-1.7-0.5c-0.3-0.1-0.6-0.2-0.9-0.3c-0.8-0.3-1.7-0.6-2.5-0.9c-0.1-0.1-0.3-0.1-0.4-0.2c-0.7-0.3-1.4-0.6-2.1-0.9
		c-0.3-0.1-0.6-0.3-0.9-0.4c-0.5-0.2-1-0.5-1.5-0.7c-0.3-0.2-0.6-0.3-1-0.5c-0.5-0.2-0.9-0.5-1.4-0.8c-0.3-0.2-0.6-0.4-1-0.5
		c-0.5-0.3-0.9-0.5-1.4-0.8c-0.3-0.2-0.6-0.4-0.9-0.6c-0.5-0.3-1.1-0.7-1.6-1c-0.2-0.1-0.4-0.3-0.6-0.4c-0.7-0.5-1.4-1-2.1-1.5
		c-0.3-0.2-0.5-0.4-0.7-0.6c-0.4-0.4-0.9-0.7-1.3-1.1c-0.3-0.2-0.6-0.5-0.9-0.7c-0.4-0.3-0.8-0.7-1.1-1c-0.3-0.3-0.6-0.5-0.9-0.8
		c-0.4-0.4-0.7-0.7-1.1-1.1c-0.3-0.3-0.5-0.5-0.8-0.8c-0.4-0.4-0.7-0.8-1.1-1.2c-0.2-0.3-0.5-0.5-0.7-0.8c-0.6-0.6-1.1-1.3-1.7-2
		c-0.2-0.2-0.3-0.4-0.5-0.7c-0.4-0.5-0.7-1-1.1-1.5c-0.2-0.3-0.4-0.6-0.7-0.9c-0.3-0.4-0.6-0.8-0.9-1.3c-0.2-0.3-0.4-0.7-0.7-1
		c-0.3-0.4-0.5-0.9-0.8-1.3c-0.2-0.3-0.4-0.7-0.6-1c-0.3-0.5-0.5-0.9-0.8-1.4c-0.2-0.3-0.4-0.7-0.5-1l0,0c0,0.1,0,0.1,0.1,0.2
		c-4-7.6-12.6-11.9-21.4-10c-10.3,2.2-17,12.6-14.8,23.2c2.3,10.6,12.7,17.3,23.2,15.1l0,0l0,0c27.3-5.8,54.1,8,65.8,32l0,0
		c0-0.1-0.1-0.2-0.1-0.2c2.9,6.5,9.1,11.3,16.6,12.3c11.6,1.5,22.3-6.7,23.7-18.4c0.1-0.4,0.1-0.9,0.1-1.3l0,0
		c2.2-31.1,28.2-55.5,59.8-55.2l0,0c-1.4,0-2.8-0.1-4.1-0.2c1.4,0.1,2.7,0.2,4.1,0.2c23.4,0.2,42.5-18.6,42.7-42
		C249.9,38.6,231.1,19.5,207.7,19.3z M54.8,108.1L54.8,108.1C54.8,108.1,54.8,108.2,54.8,108.1C54.8,108.2,54.8,108.2,54.8,108.1z"
		/>
</g>
</svg>
